<svg xmlns="http://www.w3.org/2000/svg" version="1.1" xmlns:xlink="http://www.w3.org/1999/xlink" xmlns:svgjs="http://svgjs.dev/svgjs" width="2000" height="797" viewBox="0 0 2000 797"><g transform="matrix(1,0,0,1,-1.212088989057861,0.0080216776516977)"><svg viewBox="0 0 396 158" data-background-color="#ffffff" preserveAspectRatio="xMidYMid meet" height="797" width="2000" xmlns="http://www.w3.org/2000/svg" xmlns:xlink="http://www.w3.org/1999/xlink"><defs></defs><g id="tight-bounds" transform="matrix(1,0,0,1,0.2399936198334558,-0.0015902447540412368)"><svg viewBox="0 0 395.52 158.00318048950808" height="158.00318048950808" width="395.52"><g><svg viewBox="0 0 503.15139071063834 200.99999999999997" height="158.00318048950808" width="395.52"><g><rect width="8.298573689361701" height="200.99999999999997" x="194.13944042553192" y="0" fill="#000000" opacity="1" stroke-width="0" stroke="transparent" fill-opacity="1" class="rect-o-0" data-fill-palette-color="primary" rx="1%" id="o-0" data-palette-color="#00ebff"></rect></g><g transform="matrix(1,0,0,1,224.16202900851061,0.4999999999999858)"><svg viewBox="0 0 278.98936170212767 200" height="200" width="278.98936170212767"><g><svg viewBox="0 0 278.98936170212767 200" height="200" width="278.98936170212767"><g><svg viewBox="0 0 278.98936170212767 200" height="200" width="278.98936170212767"><g transform="matrix(1,0,0,1,0,0)"><svg width="278.98936170212767" viewBox="0.5 -33.94999694824219 104.89999389648438 71.8499984741211" height="200" data-palette-color="#00ebff"><svg></svg><svg></svg><g class="undefined-text-0" data-fill-palette-color="primary" id="text-0"><path d="M23.65-16.15l-0.15-17.7h5.95v33.9h-4.95l-11.4-17.8c-0.633-0.967-1.323-2.06-2.07-3.28-0.753-1.213-1.463-2.337-2.13-3.37v0c0.1 1.067 0.193 2.183 0.28 3.35 0.08 1.167 0.12 2.283 0.12 3.35v0l0.15 17.7h-5.95v-33.95h4.65l11.75 17.6c0.667 0.967 1.343 1.99 2.03 3.07 0.68 1.087 1.353 2.13 2.02 3.13v0c-0.067-1.067-0.133-2.143-0.2-3.23-0.067-1.08-0.1-2.003-0.1-2.77zM36.45 0v-33.85h20.1v4.5h-14.15v9.45h11.65l-0.75 4.55h-10.9v10.85h14.9v4.5zM88.35 0l-6.7-20.55c-0.5-1.367-0.9-2.7-1.2-4v0c-0.167 0.633-0.323 1.267-0.47 1.9-0.153 0.633-0.347 1.333-0.58 2.1v0l-6.5 20.55h-4.4l-9.4-33.85h5.95l4.4 16.95c0.767 2.933 1.317 5.3 1.65 7.1v0c0.233-0.933 0.51-1.967 0.83-3.1 0.313-1.133 0.703-2.433 1.17-3.9v0l5.3-17.05h4.45l5.3 17.05c0.467 1.5 0.867 2.867 1.2 4.1 0.333 1.233 0.6 2.317 0.8 3.25v0c0.133-0.933 0.327-2.017 0.58-3.25 0.247-1.233 0.57-2.6 0.97-4.1v0l4.4-17.05h6.05l-9.4 33.85z" data-fill-palette-color="primary" fill="#000000" opacity="1"></path><path d="M0.5 3.75h23.6l-0.75 4.5h-8.4v29.35h-5.9v-29.35h-8.55zM28.15 37.6v-33.85h20.1v4.5h-14.15v9.45h11.65l-0.75 4.55h-10.9v10.85h14.9v4.5zM75.05 6.9l-3.05 3.65c-0.8-0.867-1.64-1.527-2.52-1.98-0.887-0.447-1.913-0.67-3.08-0.67v0c-1.433 0-2.64 0.323-3.62 0.97-0.987 0.653-1.78 1.553-2.38 2.7-0.6 1.153-1.033 2.497-1.3 4.03-0.267 1.533-0.4 3.183-0.4 4.95v0c0 1.767 0.127 3.417 0.38 4.95 0.247 1.533 0.68 2.883 1.3 4.05 0.613 1.167 1.447 2.083 2.5 2.75 1.047 0.667 2.37 1 3.97 1v0c0.767 0 1.5-0.067 2.2-0.2 0.7-0.133 1.343-0.277 1.93-0.43 0.58-0.147 1.063-0.287 1.45-0.42 0.38-0.133 0.62-0.217 0.72-0.25v0l1.4 4.2-0.65 0.25c-0.433 0.167-1.04 0.357-1.82 0.57-0.787 0.22-1.72 0.423-2.8 0.61-1.087 0.18-2.28 0.27-3.58 0.27v0c-4.467 0-7.823-1.427-10.07-4.28-2.253-2.847-3.38-7.02-3.38-12.52v0c0-2.633 0.3-5.043 0.9-7.23 0.6-2.18 1.51-4.053 2.73-5.62 1.213-1.567 2.747-2.783 4.6-3.65 1.847-0.867 4.02-1.3 6.52-1.3v0c2 0 3.643 0.367 4.93 1.1 1.28 0.733 2.32 1.567 3.12 2.5zM99.45 37.6v-15.4h-13.95v15.4h-5.95v-33.85h5.95v14.1h13.95v-14.1h5.95v33.85z" data-fill-palette-color="primary" fill="#000000" opacity="1"></path></g></svg></g></svg></g></svg></g></svg></g><g transform="matrix(1,0,0,1,0,26.10402028070736)"><svg viewBox="0 0 172.4154255319149 148.79195943858525" height="148.79195943858525" width="172.4154255319149"><g><svg xmlns="http://www.w3.org/2000/svg" data-name="Ebene 1" viewBox="11.60999870300293 16.8700008392334 76.77999877929688 66.26000213623047" x="0" y="0" height="148.79195943858525" width="172.4154255319149" class="icon-icon-0" data-fill-palette-color="accent" id="icon-0"><path d="M34.46 35.31a9.22 9.22 0 1 1 9.22-9.22A9.23 9.23 0 0 1 34.46 35.31Zm0-16.44a7.22 7.22 0 1 0 7.22 7.22A7.23 7.23 0 0 0 34.46 18.87Zm29 16.44a9.22 9.22 0 1 1 9.22-9.22A9.22 9.22 0 0 1 63.47 35.31Zm0-16.44a7.22 7.22 0 1 0 7.22 7.22A7.22 7.22 0 0 0 63.47 18.87Zm-29 64.26a9.22 9.22 0 1 1 9.22-9.22A9.24 9.24 0 0 1 34.46 83.13Zm0-16.44a7.22 7.22 0 1 0 7.22 7.22A7.23 7.23 0 0 0 34.46 66.69Zm29 16.44a9.22 9.22 0 1 1 9.22-9.22A9.23 9.23 0 0 1 63.47 83.13Zm0-16.44a7.22 7.22 0 1 0 7.22 7.22A7.22 7.22 0 0 0 63.47 66.69ZM20.83 59.22A9.22 9.22 0 1 1 30.05 50 9.24 9.24 0 0 1 20.83 59.22Zm0-16.44A7.22 7.22 0 1 0 28.05 50 7.23 7.23 0 0 0 20.83 42.78ZM79.17 59.22A9.22 9.22 0 1 1 88.39 50 9.24 9.24 0 0 1 79.17 59.22Zm0-16.44A7.22 7.22 0 1 0 86.39 50 7.23 7.23 0 0 0 79.17 42.78ZM61.81 58.72h-24L49.84 38Zm-20.49-2h17L49.84 42Z" fill="#000000" data-fill-palette-color="accent"></path></svg></g></svg></g></svg></g></svg><rect width="395.52" height="158.00318048950808" fill="none" stroke="none" visibility="hidden"></rect></g></svg></g></svg>